<svg xmlns="http://www.w3.org/2000/svg" xmlns:xlink="http://www.w3.org/1999/xlink" width="66" height="52" viewBox="0 0 66 52"><defs><path id="i16pa" d="M1037.44 1034.02c3.556.38 8.656.585 12.474.589 3.836.003 8.955-.195 12.526-.572"/><path id="i16pb" d="M1031.889 988.95c-5.153.939-9.846 2.268-13.889 3.904v36.238c4.043 1.641 8.736 2.977 13.889 3.925"/><path id="i16pc" d="M1062.44 987.979c-3.556-.38-8.656-.585-12.474-.589-3.836-.003-8.955.194-12.526.572"/><path id="i16pd" d="M1068 1033.045c5.153-.939 9.846-2.268 13.889-3.904v-36.237c-4.043-1.642-8.736-2.978-13.889-3.924"/><path id="i16pe" d="M1037.44 1020.48c3.561.154 8.67.237 12.488.242 3.831.002 8.945-.075 12.512-.225"/><path id="i16pf" d="M1031.889 1001.9c-5.174.375-9.875.907-13.889 1.563v15.033c4.017.662 8.717 1.203 13.89 1.585"/><path id="i16pg" d="M1062.44 1001.522c-3.56-.156-8.664-.24-12.488-.242-3.826-.004-8.943.074-12.512.224"/><path id="i16ph" d="M1068.001 1020.106c5.152-.375 9.845-.905 13.888-1.56v-15.033c-4.043-.662-8.736-1.201-13.889-1.583"/><path id="i16pi" d="M1031.89 1036h5.556v-50h-5.556z"/><path id="i16pj" d="M1062.44 1036h5.556v-50h-5.556z"/></defs><g><g transform="translate(-1017 -985)"><g><use fill="#fff" fill-opacity="0" stroke="#cfaa6b" stroke-miterlimit="50" stroke-width="2" xlink:href="#i16pa"/></g><g><use fill="#fff" fill-opacity="0" stroke="#cfaa6b" stroke-miterlimit="50" stroke-width="2" xlink:href="#i16pb"/></g><g><use fill="#fff" fill-opacity="0" stroke="#cfaa6b" stroke-miterlimit="50" stroke-width="2" xlink:href="#i16pc"/></g><g><use fill="#fff" fill-opacity="0" stroke="#cfaa6b" stroke-miterlimit="50" stroke-width="2" xlink:href="#i16pd"/></g><g><use fill="#fff" fill-opacity="0" stroke="#cfaa6b" stroke-miterlimit="50" stroke-width="2" xlink:href="#i16pe"/></g><g><use fill="#fff" fill-opacity="0" stroke="#cfaa6b" stroke-miterlimit="50" stroke-width="2" xlink:href="#i16pf"/></g><g><use fill="#fff" fill-opacity="0" stroke="#cfaa6b" stroke-miterlimit="50" stroke-width="2" xlink:href="#i16pg"/></g><g><use fill="#fff" fill-opacity="0" stroke="#cfaa6b" stroke-miterlimit="50" stroke-width="2" xlink:href="#i16ph"/></g><g><use fill="#fff" fill-opacity="0" stroke="#cfaa6b" stroke-miterlimit="50" stroke-width="2" xlink:href="#i16pi"/></g><g><use fill="#fff" fill-opacity="0" stroke="#cfaa6b" stroke-miterlimit="50" stroke-width="2" xlink:href="#i16pj"/></g></g></g></svg>