<svg xmlns="http://www.w3.org/2000/svg" xmlns:xlink="http://www.w3.org/1999/xlink" width="28" height="61" viewBox="0 0 28 61"><defs><path id="avroa" d="M733.083 989.83v10.291c0 2.719-1.41 5.241-3.723 6.666l-9.32 5.217"/><path id="avrob" d="M733.083 1009.39v2.609c0 2.717-1.41 5.24-3.723 6.665l-9.32 5.217v-9.13"/><path id="avroc" d="M733.083 1021.27v2.609c0 2.717-1.41 5.24-3.723 6.665l-9.32 5.217v-9.13"/><path id="avrod" d="M707 989.83v10.291c0 2.719 1.41 5.241 3.724 6.666l9.32 5.217"/><path id="avroe" d="M707 1009.39v2.609c0 2.717 1.41 5.24 3.724 6.665l9.32 5.217v-9.13"/><path id="avrof" d="M707 1021.27v2.609c0 2.717 1.41 5.24 3.724 6.665l9.32 5.217v-9.13"/><path id="avrog" d="M714.82 1002.87c0 5.557 5.217 9.13 5.217 9.13s5.22-3.574 5.22-9.13c0-5.556-5.22-9.13-5.22-9.13s-5.217 3.574-5.217 9.13z"/><path id="avroh" d="M720.04 982v11.74"/><path id="avroi" d="M720.04 1012v28.983"/><path id="avroj" d="M713.52 985.91v7.826"/><path id="avrok" d="M726.57 985.91v7.826"/></defs><g><g transform="translate(-706 -981)"><g><use fill="#fff" fill-opacity="0" stroke="#ff2731" stroke-linecap="round" stroke-miterlimit="50" stroke-width="2" xlink:href="#avroa"/></g><g><use fill="#fff" fill-opacity="0" stroke="#ff2731" stroke-linecap="round" stroke-miterlimit="50" stroke-width="2" xlink:href="#avrob"/></g><g><use fill="#fff" fill-opacity="0" stroke="#ff2731" stroke-linecap="round" stroke-miterlimit="50" stroke-width="2" xlink:href="#avroc"/></g><g><use fill="#fff" fill-opacity="0" stroke="#ff2731" stroke-linecap="round" stroke-miterlimit="50" stroke-width="2" xlink:href="#avrod"/></g><g><use fill="#fff" fill-opacity="0" stroke="#ff2731" stroke-linecap="round" stroke-miterlimit="50" stroke-width="2" xlink:href="#avroe"/></g><g><use fill="#fff" fill-opacity="0" stroke="#ff2731" stroke-linecap="round" stroke-miterlimit="50" stroke-width="2" xlink:href="#avrof"/></g><g><use fill="#fff" fill-opacity="0" stroke="#ff2731" stroke-linecap="round" stroke-miterlimit="50" stroke-width="2" xlink:href="#avrog"/></g><g><use fill="#fff" fill-opacity="0" stroke="#ff2731" stroke-linecap="round" stroke-miterlimit="50" stroke-width="2" xlink:href="#avroh"/></g><g><use fill="#fff" fill-opacity="0" stroke="#ff2731" stroke-linecap="round" stroke-miterlimit="50" stroke-width="2" xlink:href="#avroi"/></g><g><use fill="#fff" fill-opacity="0" stroke="#ff2731" stroke-linecap="round" stroke-miterlimit="50" stroke-width="2" xlink:href="#avroj"/></g><g><use fill="#fff" fill-opacity="0" stroke="#ff2731" stroke-linecap="round" stroke-miterlimit="50" stroke-width="2" xlink:href="#avrok"/></g></g></g></svg>