<svg xmlns="http://www.w3.org/2000/svg" xmlns:xlink="http://www.w3.org/1999/xlink" width="62" height="62" viewBox="0 0 62 62"><defs><path id="ljkya" d="M857 1033h13"/><path id="ljkyb" d="M878.464 981v11.74s-.33 8.151 0 7.825V1011l13.215 10.435v11.739l1.321 1.304V1041h-37v-6.522l1.321-1.304v-11.74L870.536 1011v-20.87"/><path id="ljkyc" d="M892 1033h-7"/><path id="ljkyd" d="M915 1028h-13"/><path id="ljkye" d="M896.625 1036H916v-6.571l-1.292-1.315v-9.302a5.296 5.296 0 0 0-1.938-4.105l-10.978-8.936V999.2c0-5.081-4.048-9.2-9.042-9.2H885"/><path id="ljkyf" d="M886 1012l8-6.364v-5.09c0-1.406-1.195-2.546-2.667-2.546H878"/><path id="ljkyg" d="M871 1016l-7 5"/><path id="ljkyh" d="M895 1010l-4 4"/></defs><g><g transform="translate(-855 -980)"><g><use fill="#fff" fill-opacity="0" stroke="#cfaa6b" stroke-linecap="round" stroke-miterlimit="50" stroke-width="2" xlink:href="#ljkya"/></g><g><use fill="#fff" fill-opacity="0" stroke="#cfaa6b" stroke-linecap="round" stroke-miterlimit="50" stroke-width="2" xlink:href="#ljkyb"/></g><g><use fill="#fff" fill-opacity="0" stroke="#cfaa6b" stroke-linecap="round" stroke-miterlimit="50" stroke-width="2" xlink:href="#ljkyc"/></g><g><use fill="#fff" fill-opacity="0" stroke="#cfaa6b" stroke-linecap="round" stroke-miterlimit="50" stroke-width="2" xlink:href="#ljkyd"/></g><g><use fill="#fff" fill-opacity="0" stroke="#cfaa6b" stroke-linecap="round" stroke-miterlimit="50" stroke-width="2" xlink:href="#ljkye"/></g><g><use fill="#fff" fill-opacity="0" stroke="#cfaa6b" stroke-linecap="round" stroke-miterlimit="50" stroke-width="2" xlink:href="#ljkyf"/></g><g><use fill="#fff" fill-opacity="0" stroke="#cfaa6b" stroke-linecap="round" stroke-miterlimit="50" stroke-width="2" xlink:href="#ljkyg"/></g><g><use fill="#fff" fill-opacity="0" stroke="#cfaa6b" stroke-linecap="round" stroke-miterlimit="50" stroke-width="2" xlink:href="#ljkyh"/></g></g></g></svg>