<svg xmlns="http://www.w3.org/2000/svg" xmlns:xlink="http://www.w3.org/1999/xlink" width="56" height="62" viewBox="0 0 56 62"><defs><path id="jevxa" d="M551.09 1008.27v20.455"/><path id="jevxb" d="M557.91 1008.27v20.455"/><path id="jevxc" d="M564.73 1008.27v20.455"/><path id="jevxd" d="M565.602 985.42c-1.361 1.21-1.812 2.307-2.152 3.738"/><path id="jevxe" d="M538.82 990.55c1.537 0 2.955.509 4.095 1.366"/><path id="jevxf" d="M540.18 1023.273v9.545l-1.847 3.697a2.728 2.728 0 0 0 .511 3.149l1.336 1.336h32.728l1.336-1.336c.83-.83 1.036-2.1.511-3.149l-1.847-3.697v-2.727h2.727c.785 0 1.538-.312 2.095-.867l4.655-4.656a9.546 9.546 0 0 0 2.795-6.75v-9.545a4.09 4.09 0 0 0-4.09-4.091h-8.182v-5.455c2.727-1.25 4.715-6.998 2.727-10.909-1.12-2.206-4.943-4.773-9.982-2.386a8.16 8.16 0 0 0-11.922-.895 8.168 8.168 0 0 0-6.72-3.537c-2.283-.003-8.96 1.28-8.194 9.545-3.936.594-6.817 4.082-6.817 8.182 0 3.028 1.362 5.67 4.09 7.086v13.369a4.09 4.09 0 1 0 8.181 0v-13.637a6.819 6.819 0 0 1 6.819-6.818h21.818"/><path id="jevxg" d="M570.183 1035.55H542.91"/><path id="jevxh" d="M572.91 1009.64v15h1.364l4.655-4.655c.511-.512.8-1.206.8-1.93v-7.051c0-.753-.612-1.364-1.364-1.364z"/></defs><g><g transform="translate(-531 -980)"><g><use fill="#fff" fill-opacity="0" stroke="#cfaa6b" stroke-miterlimit="50" stroke-width="2" xlink:href="#jevxa"/></g><g><use fill="#fff" fill-opacity="0" stroke="#cfaa6b" stroke-miterlimit="50" stroke-width="2" xlink:href="#jevxb"/></g><g><use fill="#fff" fill-opacity="0" stroke="#cfaa6b" stroke-miterlimit="50" stroke-width="2" xlink:href="#jevxc"/></g><g><use fill="#fff" fill-opacity="0" stroke="#cfaa6b" stroke-miterlimit="50" stroke-width="2" xlink:href="#jevxd"/></g><g><use fill="#fff" fill-opacity="0" stroke="#cfaa6b" stroke-miterlimit="50" stroke-width="2" xlink:href="#jevxe"/></g><g><use fill="#fff" fill-opacity="0" stroke="#cfaa6b" stroke-miterlimit="50" stroke-width="2" xlink:href="#jevxf"/></g><g><use fill="#fff" fill-opacity="0" stroke="#cfaa6b" stroke-miterlimit="50" stroke-width="2" xlink:href="#jevxg"/></g><g><use fill="#fff" fill-opacity="0" stroke="#cfaa6b" stroke-miterlimit="50" stroke-width="2" xlink:href="#jevxh"/></g></g></g></svg>