<svg xmlns:xlink="http://www.w3.org/1999/xlink"><symbol viewBox="0 0 66 52" id="age" xmlns="http://www.w3.org/2000/svg"><defs><path id="aa" d="M1037.44 1034.02c3.556.38 8.656.585 12.474.589 3.836.003 8.955-.195 12.526-.572"/><path id="ab" d="M1031.889 988.95c-5.153.939-9.846 2.268-13.889 3.904v36.238c4.043 1.641 8.736 2.977 13.889 3.925"/><path id="ac" d="M1062.44 987.979c-3.556-.38-8.656-.585-12.474-.589-3.836-.003-8.955.194-12.526.572"/><path id="ad" d="M1068 1033.045c5.153-.939 9.846-2.268 13.889-3.904v-36.237c-4.043-1.642-8.736-2.978-13.889-3.924"/><path id="ae" d="M1037.44 1020.48c3.561.154 8.67.237 12.488.242 3.831.002 8.945-.075 12.512-.225"/><path id="af" d="M1031.889 1001.9c-5.174.375-9.875.907-13.889 1.563v15.033c4.017.662 8.717 1.203 13.89 1.585"/><path id="ag" d="M1062.44 1001.522c-3.56-.156-8.664-.24-12.488-.242-3.826-.004-8.943.074-12.512.224"/><path id="ah" d="M1068.001 1020.106c5.152-.375 9.845-.905 13.888-1.56v-15.033c-4.043-.662-8.736-1.201-13.889-1.583"/><path id="ai" d="M1031.89 1036h5.556v-50h-5.556z"/><path id="aj" d="M1062.44 1036h5.556v-50h-5.556z"/></defs><use fill-opacity="0"  stroke-miterlimit="50" stroke-width="2" xlink:href="#aa" transform="translate(-1017 -985)"/><use fill-opacity="0"  stroke-miterlimit="50" stroke-width="2" xlink:href="#ab" transform="translate(-1017 -985)"/><use fill-opacity="0"  stroke-miterlimit="50" stroke-width="2" xlink:href="#ac" transform="translate(-1017 -985)"/><use fill-opacity="0"  stroke-miterlimit="50" stroke-width="2" xlink:href="#ad" transform="translate(-1017 -985)"/><use fill-opacity="0"  stroke-miterlimit="50" stroke-width="2" xlink:href="#ae" transform="translate(-1017 -985)"/><use fill-opacity="0"  stroke-miterlimit="50" stroke-width="2" xlink:href="#af" transform="translate(-1017 -985)"/><use fill-opacity="0"  stroke-miterlimit="50" stroke-width="2" xlink:href="#ag" transform="translate(-1017 -985)"/><use fill-opacity="0"  stroke-miterlimit="50" stroke-width="2" xlink:href="#ah" transform="translate(-1017 -985)"/><use fill-opacity="0"  stroke-miterlimit="50" stroke-width="2" xlink:href="#ai" transform="translate(-1017 -985)"/><use fill-opacity="0"  stroke-miterlimit="50" stroke-width="2" xlink:href="#aj" transform="translate(-1017 -985)"/></symbol><symbol viewBox="0 0 28 61" id="color" xmlns="http://www.w3.org/2000/svg"><defs><path id="ba" d="M733.083 989.83v10.291a7.829 7.829 0 0 1-3.723 6.666l-9.32 5.217"/><path id="bb" d="M733.083 1009.39v2.609a7.83 7.83 0 0 1-3.723 6.665l-9.32 5.217v-9.13"/><path id="bc" d="M733.083 1021.27v2.609a7.83 7.83 0 0 1-3.723 6.665l-9.32 5.217v-9.13"/><path id="bd" d="M707 989.83v10.291a7.828 7.828 0 0 0 3.724 6.666l9.32 5.217"/><path id="be" d="M707 1009.39v2.609c0 2.717 1.41 5.24 3.724 6.665l9.32 5.217v-9.13"/><path id="bf" d="M707 1021.27v2.609c0 2.717 1.41 5.24 3.724 6.665l9.32 5.217v-9.13"/><path id="bg" d="M714.82 1002.87c0 5.557 5.217 9.13 5.217 9.13s5.22-3.574 5.22-9.13c0-5.556-5.22-9.13-5.22-9.13s-5.217 3.574-5.217 9.13z"/><path id="bh" d="M720.04 982v11.74"/><path id="bi" d="M720.04 1012v28.983"/><path id="bj" d="M713.52 985.91v7.826"/><path id="bk" d="M726.57 985.91v7.826"/></defs><use fill-opacity="0"  stroke-linecap="round" stroke-miterlimit="50" stroke-width="2" xlink:href="#ba" transform="translate(-706 -981)"/><use fill-opacity="0"  stroke-linecap="round" stroke-miterlimit="50" stroke-width="2" xlink:href="#bb" transform="translate(-706 -981)"/><use fill-opacity="0"  stroke-linecap="round" stroke-miterlimit="50" stroke-width="2" xlink:href="#bc" transform="translate(-706 -981)"/><use fill-opacity="0"  stroke-linecap="round" stroke-miterlimit="50" stroke-width="2" xlink:href="#bd" transform="translate(-706 -981)"/><use fill-opacity="0"  stroke-linecap="round" stroke-miterlimit="50" stroke-width="2" xlink:href="#be" transform="translate(-706 -981)"/><use fill-opacity="0"  stroke-linecap="round" stroke-miterlimit="50" stroke-width="2" xlink:href="#bf" transform="translate(-706 -981)"/><use fill-opacity="0"  stroke-linecap="round" stroke-miterlimit="50" stroke-width="2" xlink:href="#bg" transform="translate(-706 -981)"/><use fill-opacity="0"  stroke-linecap="round" stroke-miterlimit="50" stroke-width="2" xlink:href="#bh" transform="translate(-706 -981)"/><use fill-opacity="0"  stroke-linecap="round" stroke-miterlimit="50" stroke-width="2" xlink:href="#bi" transform="translate(-706 -981)"/><use fill-opacity="0"  stroke-linecap="round" stroke-miterlimit="50" stroke-width="2" xlink:href="#bj" transform="translate(-706 -981)"/><use fill-opacity="0"  stroke-linecap="round" stroke-miterlimit="50" stroke-width="2" xlink:href="#bk" transform="translate(-706 -981)"/></symbol><symbol viewBox="0 0 62 62" id="ingredients" xmlns="http://www.w3.org/2000/svg"><defs><path id="ca" d="M857 1033h13"/><path id="cb" d="M878.464 981v11.74s-.33 8.151 0 7.825V1011l13.215 10.435v11.739l1.321 1.304V1041h-37v-6.522l1.321-1.304v-11.74L870.536 1011v-20.87"/><path id="cc" d="M892 1033h-7"/><path id="cd" d="M915 1028h-13"/><path id="ce" d="M896.625 1036H916v-6.571l-1.292-1.315v-9.302a5.296 5.296 0 0 0-1.938-4.105l-10.978-8.936V999.2c0-5.081-4.048-9.2-9.042-9.2H885"/><path id="cf" d="M886 1012l8-6.364v-5.09c0-1.406-1.195-2.546-2.667-2.546H878"/><path id="cg" d="M871 1016l-7 5"/><path id="ch" d="M895 1010l-4 4"/></defs><use fill-opacity="0"  stroke-linecap="round" stroke-miterlimit="50" stroke-width="2" xlink:href="#ca" transform="translate(-855 -980)"/><use fill-opacity="0"  stroke-linecap="round" stroke-miterlimit="50" stroke-width="2" xlink:href="#cb" transform="translate(-855 -980)"/><use fill-opacity="0"  stroke-linecap="round" stroke-miterlimit="50" stroke-width="2" xlink:href="#cc" transform="translate(-855 -980)"/><use fill-opacity="0"  stroke-linecap="round" stroke-miterlimit="50" stroke-width="2" xlink:href="#cd" transform="translate(-855 -980)"/><use fill-opacity="0"  stroke-linecap="round" stroke-miterlimit="50" stroke-width="2" xlink:href="#ce" transform="translate(-855 -980)"/><use fill-opacity="0"  stroke-linecap="round" stroke-miterlimit="50" stroke-width="2" xlink:href="#cf" transform="translate(-855 -980)"/><use fill-opacity="0"  stroke-linecap="round" stroke-miterlimit="50" stroke-width="2" xlink:href="#cg" transform="translate(-855 -980)"/><use fill-opacity="0"  stroke-linecap="round" stroke-miterlimit="50" stroke-width="2" xlink:href="#ch" transform="translate(-855 -980)"/></symbol><symbol viewBox="0 0 60 62" id="strength" xmlns="http://www.w3.org/2000/svg"><defs><path id="da" d="M412.868 1009.694c0 12.246-9.928 22.174-22.174 22.174-12.247 0-22.174-9.928-22.174-22.174 0-12.247 9.927-22.174 22.174-22.174 12.246 0 22.174 9.927 22.174 22.174z"/><path id="db" d="M419.391 1009.696c0 15.847-12.848 28.695-28.695 28.695-15.848 0-28.696-12.848-28.696-28.695C362 993.848 374.848 981 390.696 981c15.847 0 28.695 12.848 28.695 28.696z"/><path id="dc" d="M381.57 988.83v41.74"/><path id="dd" d="M399.83 988.83v41.74"/><path id="de" d="M390.7 981v6.522"/><path id="df" d="M412.87 1009.7h6.522"/><path id="dg" d="M367.217 1009.7H362"/><path id="dh" d="M390.7 1031.87v6.522"/><path id="di" d="M411.563 991.43l-3.913 3.913"/><path id="dj" d="M369.83 991.43l3.913 3.913"/><path id="dk" d="M372.43 1030.563l3.913-3.913"/><path id="dl" d="M408.953 1030.563l-3.913-3.913"/><path id="dm" d="M394.606 1020.133a3.913 3.913 0 1 1-7.826 0 3.913 3.913 0 0 1 7.826 0z"/><path id="dn" d="M376.343 1034.482l-5.217 6.521H363.3l5.217-13.043"/><path id="do" d="M405.04 1034.482l5.217 6.521h7.826l-5.217-13.043"/></defs><use fill-opacity="0"  stroke-miterlimit="50" stroke-width="2" xlink:href="#da" transform="translate(-361 -980)"/><use fill-opacity="0"  stroke-miterlimit="50" stroke-width="2" xlink:href="#db" transform="translate(-361 -980)"/><use fill-opacity="0"  stroke-miterlimit="50" stroke-width="2" xlink:href="#dc" transform="translate(-361 -980)"/><use fill-opacity="0"  stroke-miterlimit="50" stroke-width="2" xlink:href="#dd" transform="translate(-361 -980)"/><use fill-opacity="0"  stroke-miterlimit="50" stroke-width="2" xlink:href="#de" transform="translate(-361 -980)"/><use fill-opacity="0"  stroke-miterlimit="50" stroke-width="2" xlink:href="#df" transform="translate(-361 -980)"/><use fill-opacity="0"  stroke-miterlimit="50" stroke-width="2" xlink:href="#dg" transform="translate(-361 -980)"/><use fill-opacity="0"  stroke-miterlimit="50" stroke-width="2" xlink:href="#dh" transform="translate(-361 -980)"/><use fill-opacity="0"  stroke-miterlimit="50" stroke-width="2" xlink:href="#di" transform="translate(-361 -980)"/><use fill-opacity="0"  stroke-miterlimit="50" stroke-width="2" xlink:href="#dj" transform="translate(-361 -980)"/><use fill-opacity="0"  stroke-miterlimit="50" stroke-width="2" xlink:href="#dk" transform="translate(-361 -980)"/><use fill-opacity="0"  stroke-miterlimit="50" stroke-width="2" xlink:href="#dl" transform="translate(-361 -980)"/><use fill-opacity="0"  stroke-miterlimit="50" stroke-width="2" xlink:href="#dm" transform="translate(-361 -980)"/><use fill-opacity="0"  stroke-miterlimit="50" stroke-width="2" xlink:href="#dn" transform="translate(-361 -980)"/><use fill-opacity="0"  stroke-miterlimit="50" stroke-width="2" xlink:href="#do" transform="translate(-361 -980)"/></symbol><symbol viewBox="0 0 56 62" id="taste" xmlns="http://www.w3.org/2000/svg"><defs><path id="ea" d="M551.09 1008.27v20.455"/><path id="eb" d="M557.91 1008.27v20.455"/><path id="ec" d="M564.73 1008.27v20.455"/><path id="ed" d="M565.602 985.42c-1.361 1.21-1.812 2.307-2.152 3.738"/><path id="ee" d="M538.82 990.55c1.537 0 2.955.509 4.095 1.366"/><path id="ef" d="M540.18 1023.273v9.545l-1.847 3.697a2.728 2.728 0 0 0 .511 3.149l1.336 1.336h32.728l1.336-1.336c.83-.83 1.036-2.1.511-3.149l-1.847-3.697v-2.727h2.727c.785 0 1.538-.312 2.095-.867l4.655-4.656a9.546 9.546 0 0 0 2.795-6.75v-9.545a4.09 4.09 0 0 0-4.09-4.091h-8.182v-5.455c2.727-1.25 4.715-6.998 2.727-10.909-1.12-2.206-4.943-4.773-9.982-2.386a8.16 8.16 0 0 0-11.922-.895 8.168 8.168 0 0 0-6.72-3.537c-2.283-.003-8.96 1.28-8.194 9.545-3.936.594-6.817 4.082-6.817 8.182 0 3.028 1.362 5.67 4.09 7.086v13.369a4.09 4.09 0 1 0 8.181 0v-13.637a6.819 6.819 0 0 1 6.819-6.818h21.818"/><path id="eg" d="M570.183 1035.55H542.91"/><path id="eh" d="M572.91 1009.64v15h1.364l4.655-4.655c.511-.512.8-1.206.8-1.93v-7.051c0-.753-.612-1.364-1.364-1.364z"/></defs><use fill-opacity="0"  stroke-miterlimit="50" stroke-width="2" xlink:href="#ea" transform="translate(-531 -980)"/><use fill-opacity="0"  stroke-miterlimit="50" stroke-width="2" xlink:href="#eb" transform="translate(-531 -980)"/><use fill-opacity="0"  stroke-miterlimit="50" stroke-width="2" xlink:href="#ec" transform="translate(-531 -980)"/><use fill-opacity="0"  stroke-miterlimit="50" stroke-width="2" xlink:href="#ed" transform="translate(-531 -980)"/><use fill-opacity="0"  stroke-miterlimit="50" stroke-width="2" xlink:href="#ee" transform="translate(-531 -980)"/><use fill-opacity="0"  stroke-miterlimit="50" stroke-width="2" xlink:href="#ef" transform="translate(-531 -980)"/><use fill-opacity="0"  stroke-miterlimit="50" stroke-width="2" xlink:href="#eg" transform="translate(-531 -980)"/><use fill-opacity="0"  stroke-miterlimit="50" stroke-width="2" xlink:href="#eh" transform="translate(-531 -980)"/></symbol><symbol viewBox="0 0 120 117" id="text-circle" xmlns="http://www.w3.org/2000/svg"><defs><path id="fa" d="M751.426 53.157c-1.018-.699-1.903-.546-2.65.458a60.638 60.638 0 0 0-2.408 3.509c-.4.639-.544 1.196-.445 1.67.1.471.403.883.912 1.232.524.358 1.024.534 1.504.53.478-.006.903-.277 1.27-.813l-.97-.666a.638.638 0 0 1-.277-.433.652.652 0 0 1 .102-.504l1.572-2.293a.652.652 0 0 1 .435-.28.646.646 0 0 1 .504.104l5.678 3.894a.638.638 0 0 1 .279.435.646.646 0 0 1-.106.506l-1.839 2.684c-.643.935-1.378 1.632-2.212 2.094a6.142 6.142 0 0 1-2.683.77c-.956.051-1.95-.098-2.981-.452-1.033-.353-2.072-.891-3.118-1.607-1.047-.716-1.908-1.484-2.587-2.29-.68-.812-1.156-1.656-1.435-2.535a5.878 5.878 0 0 1-.193-2.727c.147-.94.534-1.906 1.153-2.897.36-.583.765-1.206 1.22-1.864.451-.662.894-1.278 1.328-1.851.665-.88 1.403-1.546 2.218-1.997a5.81 5.81 0 0 1 2.601-.739c.919-.037 1.873.118 2.868.466.995.35 2.002.873 3.02 1.57 1.087.747 1.982 1.544 2.688 2.39.703.848 1.214 1.688 1.533 2.524.315.836.453 1.647.408 2.435a4.282 4.282 0 0 1-.685 2.127.524.524 0 0 1-.354.226.528.528 0 0 1-.412-.085l-4.562-3.128c-.275-.189-.422-.402-.443-.638a6.73 6.73 0 0 1-.006-.322c0-.133-.029-.284-.085-.454a1.84 1.84 0 0 0-.277-.523 2.26 2.26 0 0 0-.565-.526"/><path id="fb" d="M770.773 79.887a48.792 48.792 0 0 1-3.836 2.17c-.997.507-1.968.784-2.905.838a6.07 6.07 0 0 1-2.686-.453c-.85-.352-1.648-.898-2.393-1.637-.745-.74-1.415-1.638-2.015-2.7-.609-1.076-1.035-2.116-1.281-3.128s-.3-1.972-.164-2.884a6.05 6.05 0 0 1 .996-2.535c.527-.776 1.268-1.462 2.215-2.058.58-.364 1.205-.737 1.87-1.113.669-.379 1.325-.73 1.964-1.054.985-.498 1.951-.775 2.897-.831a6.242 6.242 0 0 1 2.716.432c.865.344 1.676.877 2.431 1.602.753.724 1.434 1.622 2.042 2.697.6 1.06 1.018 2.105 1.254 3.13.236 1.027.277 2 .126 2.92a6.27 6.27 0 0 1-1.03 2.553c-.534.78-1.268 1.465-2.201 2.05m-8.731-6.794c-.594.375-.951.782-1.075 1.227-.122.445-.048.904.223 1.384.27.48.628.78 1.07.904.441.122.977.025 1.603-.29a58.346 58.346 0 0 0 3.657-2.07c.596-.375.951-.787 1.07-1.238.119-.45.047-.908-.216-1.373-.262-.464-.618-.762-1.065-.892-.448-.13-.986-.037-1.61.28a59.345 59.345 0 0 0-3.657 2.068"/><path id="fc" d="M768.194 101.247a.666.666 0 0 1-.155.493.653.653 0 0 1-.458.242l-3.763.343a.64.64 0 0 1-.493-.155.649.649 0 0 1-.242-.455l-1.15-12.563a.645.645 0 0 1 .157-.492.645.645 0 0 1 .455-.242l16.103-1.476a.657.657 0 0 1 .49.158c.145.12.226.27.243.455l.459 4.986a.654.654 0 0 1-.157.49.649.649 0 0 1-.456.242l-11.666 1.07z"/><path id="fd" d="M776.966 118.167c-.378 1.105-.869 2.084-1.475 2.936-.606.85-1.301 1.535-2.085 2.052a6.283 6.283 0 0 1-2.607.979c-.954.132-1.968.043-3.042-.269a24.169 24.169 0 0 1-.945-.294l-.853-.291-.844-.286c-.281-.097-.58-.207-.89-.329-1.104-.43-2.002-.983-2.69-1.655a6.052 6.052 0 0 1-1.489-2.305c-.306-.863-.43-1.804-.372-2.824.054-1.022.275-2.102.664-3.24l2.359-6.944a.662.662 0 0 1 .343-.384.65.65 0 0 1 .515-.036l15.31 5.208a.645.645 0 0 1 .385.341.66.66 0 0 1 .038.516zm-7.163-.32c.675.192 1.23.148 1.66-.137.432-.286.738-.697.92-1.233l.485-1.424-7.345-2.499-.524 1.543c-.178.52-.173 1.01.015 1.47.184.463.608.82 1.258 1.077.327.129.637.247.925.354.29.108.575.207.848.302.277.095.556.186.836.271.277.085.585.178.922.275z"/><path id="fe" d="M749.858 136.298a.641.641 0 0 1-.473.207.653.653 0 0 1-.48-.182l-2.558-2.433a.641.641 0 0 1-.207-.474.646.646 0 0 1 .182-.482l8.99-9.447a.64.64 0 0 1 .472-.207.66.66 0 0 1 .484.182l11.714 11.146a.649.649 0 0 1 .207.474.645.645 0 0 1-.184.482l-8.85 9.302a.637.637 0 0 1-.473.207.662.662 0 0 1-.484-.182l-2.555-2.431a.648.648 0 0 1-.207-.474.648.648 0 0 1 .182-.482l5.177-5.442-1.144-1.088-4.796 5.042a.637.637 0 0 1-.47.205.654.654 0 0 1-.486-.18l-2.357-2.243a.65.65 0 0 1-.204-.474.635.635 0 0 1 .182-.482l4.796-5.042-1.145-1.086z"/><path id="ff" d="M735.659 157.2a.66.66 0 0 1-.517-.008.653.653 0 0 1-.362-.368l-5.98-15.025a.638.638 0 0 1 .009-.515.659.659 0 0 1 .368-.362l3.676-1.463c.309-.124.561-.145.758-.06.194.085.33.157.407.215l6.292 4.366-2.324-5.837a.647.647 0 0 1 .01-.515.65.65 0 0 1 .37-.364l4.207-1.674a.635.635 0 0 1 .518.01.656.656 0 0 1 .362.367l5.979 15.024a.656.656 0 0 1-.012.516.643.643 0 0 1-.367.362l-3.674 1.462c-.31.123-.563.143-.757.058a2.122 2.122 0 0 1-.41-.213l-6.494-4.878 2.528 6.35a.647.647 0 0 1-.01.514.647.647 0 0 1-.369.363z"/><path id="fg" d="M716.96 150.015a3.355 3.355 0 0 1-.453 1.316 3.547 3.547 0 0 1-.888 1.006 3.524 3.524 0 0 1-2.592.695 3.41 3.41 0 0 1-1.316-.453 3.586 3.586 0 0 1-1.005-.89 3.634 3.634 0 0 1-.6-1.204 3.392 3.392 0 0 1-.094-1.388c.062-.48.214-.919.451-1.316a3.536 3.536 0 0 1 2.094-1.603c.447-.129.91-.16 1.389-.096.48.062.918.213 1.315.451a3.551 3.551 0 0 1 1.606 2.094c.126.445.157.908.093 1.388"/><path id="fh" d="M700.562 137.094c.149.11.236.259.26.447a.647.647 0 0 1-.121.498l-9.685 12.952a.653.653 0 0 1-.445.26.642.642 0 0 1-.5-.125l-6.657-4.974c-1.926-1.44-3.07-2.839-3.44-4.2-.37-1.357-.025-2.748 1.034-4.163.24-.32.517-.58.828-.772.312-.194.625-.335.941-.422a4.25 4.25 0 0 1 .927-.153c.3-.014.563 0 .782.04a3.746 3.746 0 0 1-.395-.998 4.046 4.046 0 0 1-.108-1.13 4.09 4.09 0 0 1 .211-1.137c.125-.377.31-.73.563-1.066 1.128-1.51 2.444-2.261 3.948-2.25 1.502.01 3.17.698 5 2.066zm-14.474 5.21c-.023.295.113.554.404.773l1.68 1.26 1.359-1.827-1.678-1.257c-.292-.22-.575-.28-.847-.18a1.354 1.354 0 0 0-.644.467 1.44 1.44 0 0 0-.274.764zm7.425-5.105l-1.862-1.394c-.335-.248-.654-.32-.954-.211-.3.11-.534.277-.705.505a1.38 1.38 0 0 0-.271.842c0 .323.15.6.461.83l1.862 1.394z"/><path id="fi" d="M669.042 116.013a48.125 48.125 0 0 1 3.906-2.033c1.014-.474 1.993-.718 2.932-.739a6.116 6.116 0 0 1 2.67.544c.837.383 1.615.956 2.333 1.72.718.765 1.36 1.688 1.922 2.768.569 1.096.96 2.151 1.171 3.17.213 1.02.234 1.981.066 2.89a6.072 6.072 0 0 1-1.084 2.495c-.554.761-1.318 1.42-2.284 1.98-.594.345-1.229.697-1.91 1.051-.68.356-1.349.685-1.998.985-1 .463-1.974.71-2.922.732a6.304 6.304 0 0 1-2.702-.527c-.852-.373-1.645-.936-2.373-1.685-.728-.748-1.378-1.671-1.949-2.768-.563-1.078-.943-2.135-1.142-3.17-.2-1.036-.21-2.008-.027-2.923a6.233 6.233 0 0 1 1.117-2.516c.561-.761 1.32-1.42 2.274-1.974m8.491 7.099c.606-.352.979-.75 1.118-1.19.136-.439.078-.903-.174-1.392-.257-.49-.602-.804-1.041-.943-.44-.14-.979-.058-1.614.234a58.14 58.14 0 0 0-3.73 1.948c-.606.352-.977.752-1.111 1.2-.135.448-.079.908.167 1.382.249.475.592.784 1.035.931.443.147.983.072 1.62-.224a58.735 58.735 0 0 0 3.73-1.946"/><path id="fj" d="M660 94.387a.646.646 0 0 1 .179-.484.652.652 0 0 1 .467-.222l4.024-.19c.185-.01.344.05.485.176.14.126.215.283.223.466l.194 4.15 11.454-.542a.654.654 0 0 1 .484.178.655.655 0 0 1 .222.465l.238 5a.651.651 0 0 1-.178.485.646.646 0 0 1-.466.224l-11.451.542.196 4.15a.646.646 0 0 1-.178.484.642.642 0 0 1-.465.224l-4.024.19a.654.654 0 0 1-.487-.178.652.652 0 0 1-.221-.466z"/><path id="fk" d="M666.897 70.464a.646.646 0 0 1 .358-.372.639.639 0 0 1 .515-.015l3.761 1.444a.647.647 0 0 1 .373.358.648.648 0 0 1 .016.516l-1.491 3.879 10.702 4.11a.659.659 0 0 1 .373.359.639.639 0 0 1 .014.515l-1.793 4.674a.653.653 0 0 1-.358.372.661.661 0 0 1-.518.017l-10.7-4.113-1.49 3.879a.653.653 0 0 1-.358.372.639.639 0 0 1-.515.015l-3.761-1.444a.647.647 0 0 1-.373-.358.647.647 0 0 1-.016-.515z"/><path id="fl" d="M690.858 60.817a.66.66 0 0 1 .473-.203c.189-.002.35.06.482.188l2.71 2.634a.643.643 0 0 1 .202.476.644.644 0 0 1-.189.48l-8.789 9.05a.642.642 0 0 1-.473.2.651.651 0 0 1-.485-.186l-11.596-11.268a.652.652 0 0 1-.203-.473.653.653 0 0 1 .188-.482l3.49-3.59a.645.645 0 0 1 .474-.203.65.65 0 0 1 .483.186l8.4 8.165z"/><path id="fm" d="M708.038 52.618c.17-.07.341-.07.515 0 .176.07.3.19.37.36l1.376 3.25c.073.17.07.342 0 .518a.644.644 0 0 1-.36.368l-12.012 5.08a.646.646 0 0 1-.515.001.656.656 0 0 1-.369-.36l-6.298-14.894a.638.638 0 0 1-.002-.515.656.656 0 0 1 .358-.37l11.828-5.001a.646.646 0 0 1 .516-.002c.176.07.3.192.37.36l1.376 3.252a.65.65 0 0 1 0 .515.66.66 0 0 1-.36.37l-6.917 2.924.615 1.452 6.41-2.708a.638.638 0 0 1 .515-.002c.175.072.3.19.37.36l1.266 2.996a.651.651 0 0 1 .002.517.653.653 0 0 1-.36.37l-6.41 2.71.615 1.453z"/><path id="fn" d="M721.48 47.521c.047-.482.186-.925.411-1.33.228-.404.513-.75.86-1.033a3.585 3.585 0 0 1 1.184-.633c.441-.14.904-.184 1.384-.136.485.05.925.188 1.33.413.404.226.748.511 1.033.859.284.35.493.743.633 1.183.141.445.187.905.137 1.387a3.44 3.44 0 0 1-.412 1.328 3.536 3.536 0 0 1-2.044 1.668 3.42 3.42 0 0 1-1.386.134 3.348 3.348 0 0 1-1.33-.412 3.583 3.583 0 0 1-1.033-.858 3.578 3.578 0 0 1-.633-1.186 3.41 3.41 0 0 1-.135-1.384"/></defs><use xlink:href="#fa" transform="translate(-660 -41)"/><use xlink:href="#fb" transform="translate(-660 -41)"/><use xlink:href="#fc" transform="translate(-660 -41)"/><use xlink:href="#fd" transform="translate(-660 -41)"/><use xlink:href="#fe" transform="translate(-660 -41)"/><use xlink:href="#ff" transform="translate(-660 -41)"/><use xlink:href="#fg" transform="translate(-660 -41)"/><use xlink:href="#fh" transform="translate(-660 -41)"/><use xlink:href="#fi" transform="translate(-660 -41)"/><use xlink:href="#fj" transform="translate(-660 -41)"/><use xlink:href="#fk" transform="translate(-660 -41)"/><use xlink:href="#fl" transform="translate(-660 -41)"/><use xlink:href="#fm" transform="translate(-660 -41)"/><use xlink:href="#fn" transform="translate(-660 -41)"/></symbol></svg>