<svg viewBox="0 0 80 284" fill="#362C26" xmlns:xlink="http://www.w3.org/1999/xlink" xmlns="http://www.w3.org/2000/svg">
<path id="b1" fill-rule="evenodd" clip-rule="evenodd" d="M69.4429 119.894L62.3467 106.587C61.6841 105.344 61.2713 103.989 61.1292 102.594L52.4173 16.7385H52.2336C53.0164 16.7385 53.537 15.9467 53.2133 15.2493L51.392 11.3251C51.1925 10.8968 51.3081 10.3909 51.6747 10.0862C52.4371 9.45092 51.9786 8.23018 50.9778 8.23018H54.1256L52.6604 2.18014C52.3505 0.901813 51.1846 0 49.8436 0H27.0608C25.7257 0 24.5664 0.897932 24.2585 2.16914L22.79 8.23018H25.7991C24.8128 8.23018 24.3464 9.42052 25.0797 10.0662L25.2527 10.2195C25.6042 10.5293 25.7079 11.0268 25.5084 11.4467L23.7069 15.2403C23.3753 15.9389 23.8959 16.7385 24.682 16.7385L16.7336 103.397C16.5943 104.755 16.188 106.075 15.5373 107.283L7.59425 122.037C2.60606 131.3 0 141.614 0 152.087V266.704C0 276.256 7.90738 284 17.6618 284H58.9691C68.8807 284 76.9162 276.131 76.9162 266.424V149.72C76.9162 139.334 74.3525 129.101 69.4429 119.894Z" />
<animate xlink:href="#b1" attributeName="fill" from="#362C26" to="#362C26" values="#362C26;#473A2C;#6B553A;#8F7146;#B38D54;#CFAA6B;#B38D54;#8F7146;#6B553A;#473A2C;" dur="5s" repeatCount="indefinite"/>
</svg>
